<svg width="1200" height="940" viewBox="0 0 1200 940" fill="none" xmlns="http://www.w3.org/2000/svg">
  <defs>
    <linearGradient id="bg" x1="0" y1="0" x2="1200" y2="940" gradientUnits="userSpaceOnUse">
      <stop stop-color="#030703" />
      <stop offset="1" stop-color="#071109" />
    </linearGradient>
    <pattern id="scan" width="6" height="6" patternUnits="userSpaceOnUse">
      <rect width="6" height="3" fill="#0E200F" opacity="0.2" />
    </pattern>
    <filter id="glow" x="-20%" y="-20%" width="140%" height="140%">
      <feGaussianBlur stdDeviation="2.2" result="blur" />
      <feMerge>
        <feMergeNode in="blur" />
        <feMergeNode in="SourceGraphic" />
      </feMerge>
    </filter>
  </defs>

  <rect x="14" y="14" width="1172" height="912" rx="18" fill="url(#bg)" stroke="#57FF3A" stroke-width="2" />
  <rect x="28" y="28" width="1144" height="884" rx="14" fill="#040904" stroke="#1D5724" stroke-width="1.5" />
  <rect x="28" y="28" width="1144" height="884" rx="14" fill="url(#scan)" opacity="0.85" />

  <path d="M52 112H1148" stroke="#57FF3A" stroke-width="2" />
  <path d="M404 136V884" stroke="#1D5724" stroke-width="1.5" />
  <path d="M430 628H1128" stroke="#1D5724" stroke-width="1.5" />

  <circle cx="92" cy="73" r="9" fill="#61FF44" filter="url(#glow)" />
  <text x="118" y="81" fill="#61FF44" font-family="monospace" font-size="26" font-weight="700">RETRO TERMINAL PROFILE</text>
  <text x="782" y="81" fill="#469C46" font-family="monospace" font-size="20">PRIVATE SOURCE + CLEAN STATIC EXPORT</text>

  <text x="56" y="156" fill="#61FF44" font-family="monospace" font-size="16">MODULE ITEMS</text>
  
      <rect x="56" y="188" width="322" height="52" rx="5" fill="#61FF44" stroke="#61FF44" />
      <text x="82" y="221" fill="#051005" font-family="monospace" font-size="24" font-weight="700">PYTHON</text>
      <text x="334" y="221" fill="#051005" font-family="monospace" font-size="18">01</text>
    
      <rect x="56" y="258" width="322" height="52" rx="5" fill="#0B160C" stroke="#275F2C" />
      <text x="82" y="291" fill="#61FF44" font-family="monospace" font-size="24" font-weight="700">JAVASCRIPT</text>
      <text x="334" y="291" fill="#61FF44" font-family="monospace" font-size="18">02</text>
    
      <rect x="56" y="328" width="322" height="52" rx="5" fill="#0B160C" stroke="#275F2C" />
      <text x="82" y="361" fill="#61FF44" font-family="monospace" font-size="24" font-weight="700">DOCKER</text>
      <text x="334" y="361" fill="#61FF44" font-family="monospace" font-size="18">03</text>
    
      <rect x="56" y="398" width="322" height="52" rx="5" fill="#0B160C" stroke="#275F2C" />
      <text x="82" y="431" fill="#61FF44" font-family="monospace" font-size="24" font-weight="700">KUBERNETES</text>
      <text x="334" y="431" fill="#61FF44" font-family="monospace" font-size="18">04</text>
    
      <rect x="56" y="468" width="322" height="52" rx="5" fill="#0B160C" stroke="#275F2C" />
      <text x="82" y="501" fill="#61FF44" font-family="monospace" font-size="24" font-weight="700">JENKINS</text>
      <text x="334" y="501" fill="#61FF44" font-family="monospace" font-size="18">05</text>
    

  <text x="438" y="172" fill="#61FF44" font-family="monospace" font-size="16">ACTIVE MODULE</text>
  <text x="438" y="226" fill="#61FF44" font-family="monospace" font-size="54" font-weight="700" filter="url(#glow)">PYTHON</text>
  
  <text x="438" y="264" fill="#89E879" font-family="monospace" font-size="22" font-weight="400" text-anchor="start">
    <tspan x="438" dy="0">Automation, tooling and</tspan><tspan x="438" dy="26">framework work</tspan>
  </text>


  <rect x="954" y="152" width="142" height="38" rx="19" fill="#09130A" stroke="#275F2C" />
  <text x="980" y="177" fill="#61FF44" font-family="monospace" font-size="18" font-weight="700">PRIMARY</text>

  <circle cx="978" cy="388" r="96" stroke="#61FF44" stroke-width="3" />
  <circle cx="978" cy="388" r="64" stroke="#275F2C" stroke-width="2" />
  <path d="M882 388H1074" stroke="#275F2C" stroke-width="2" />
  <path d="M978 292V484" stroke="#275F2C" stroke-width="2" />
  <text x="941" y="398" fill="#61FF44" font-family="monospace" font-size="48" font-weight="700" filter="url(#glow)">PY</text>

  
  <text x="438" y="348" fill="#8DE779" font-family="monospace" font-size="20" font-weight="400" text-anchor="start">
    <tspan x="438" dy="0">My default tool for test</tspan><tspan x="438" dy="28">automation, quality tooling,</tspan><tspan x="438" dy="28">scripts and the practical glue</tspan><tspan x="438" dy="28">that keeps delivery moving.</tspan>
  </text>

  
  <text x="472" y="486" fill="#8DE779" font-family="monospace" font-size="18" font-weight="400" text-anchor="start">
    <tspan x="472" dy="0">- Automation frameworks and</tspan><tspan x="472" dy="24">  reusable tooling</tspan>
  </text>

  <text x="472" y="538" fill="#8DE779" font-family="monospace" font-size="18" font-weight="400" text-anchor="start">
    <tspan x="472" dy="0">- Test infrastructure and</tspan><tspan x="472" dy="24">  diagnostics</tspan>
  </text>

  <text x="472" y="590" fill="#8DE779" font-family="monospace" font-size="18" font-weight="400" text-anchor="start">
    <tspan x="472" dy="0">- Fast scripting for developer</tspan><tspan x="472" dy="24">  workflows</tspan>
  </text>


  
      <rect x="438" y="650" width="304" height="78" rx="6" fill="#09130A" stroke="#275F2C" />
      
  <text x="460" y="679" fill="#61FF44" font-family="monospace" font-size="22" font-weight="700" text-anchor="start">
    <tspan x="460" dy="0">5+</tspan>
  </text>

      
  <text x="460" y="706" fill="#89E879" font-family="monospace" font-size="12" font-weight="400" text-anchor="start">
    <tspan x="460" dy="0">YEARS IN QA</tspan>
  </text>

    
      <rect x="772" y="650" width="304" height="78" rx="6" fill="#09130A" stroke="#275F2C" />
      
  <text x="794" y="679" fill="#61FF44" font-family="monospace" font-size="22" font-weight="700" text-anchor="start">
    <tspan x="794" dy="0">3500+</tspan>
  </text>

      
  <text x="794" y="706" fill="#89E879" font-family="monospace" font-size="12" font-weight="400" text-anchor="start">
    <tspan x="794" dy="0">AUTOMATED TESTS</tspan>
  </text>

    
      <rect x="438" y="744" width="304" height="78" rx="6" fill="#09130A" stroke="#275F2C" />
      
  <text x="460" y="773" fill="#61FF44" font-family="monospace" font-size="22" font-weight="700" text-anchor="start">
    <tspan x="460" dy="0">20+</tspan>
  </text>

      
  <text x="460" y="800" fill="#89E879" font-family="monospace" font-size="12" font-weight="400" text-anchor="start">
    <tspan x="460" dy="0">PIPELINES</tspan>
  </text>

    
      <rect x="772" y="744" width="304" height="78" rx="6" fill="#09130A" stroke="#275F2C" />
      
  <text x="794" y="773" fill="#61FF44" font-family="monospace" font-size="22" font-weight="700" text-anchor="start">
    <tspan x="794" dy="0">QA x DevOps</tspan>
  </text>

      
  <text x="794" y="800" fill="#89E879" font-family="monospace" font-size="12" font-weight="400" text-anchor="start">
    <tspan x="794" dy="0">FOCUS</tspan>
  </text>

    
  
      <rect x="438" y="850" width="214" height="42" rx="21" fill="#09130A" stroke="#275F2C" />
      <text x="462" y="877" fill="#61FF44" font-family="monospace" font-size="18" font-weight="700">GITHUB</text>
    
      <rect x="670" y="850" width="214" height="42" rx="21" fill="#09130A" stroke="#275F2C" />
      <text x="694" y="877" fill="#61FF44" font-family="monospace" font-size="18" font-weight="700">PROFILE README</text>
    

  <text x="54" y="876" fill="#61FF44" font-family="monospace" font-size="16">PRIVATE INTERACTIVE SOURCE / PUBLIC STATIC VIEW</text>
  <text x="54" y="900" fill="#4CA44C" font-family="monospace" font-size="14">STATIC VIEW GENERATED FROM SHARED DATA</text>
</svg>
